<svg height="512pt" viewBox="-88 0 512 512" width="512pt" xmlns="http://www.w3.org/2000/svg"><path d="m283.996094 342.199219c-13.894532-7.800781-29.785156-14.039063-47-18.5625 37.839844-13.652344 62.621094-38.347657 62.621094-67.117188 0-30.761719-28.332032-56.863281-70.65625-69.789062 27.851562-11.535157 45.785156-30.878907 45.785156-53.210938 0-25.140625-22.722656-46.496093-56.742188-57.183593 13.078125-8.023438 21.085938-19.238282 21.085938-31.835938 0-24.953125-31.386719-44.5-71.453125-44.5-40.066407 0-71.453125 19.546875-71.453125 44.5 0 12.597656 8.007812 23.8125 21.085937 31.835938-34.019531 10.6875-56.742187 32.042968-56.742187 57.183593 0 22.332031 17.933594 41.675781 45.785156 53.210938-42.328125 12.925781-70.65625 39.027343-70.65625 69.789062 0 28.769531 24.78125 53.464844 62.621094 67.117188-17.214844 4.523437-33.105469 10.761719-47.003906 18.5625-33.0625 18.566406-51.273438 43.886719-51.273438 71.300781s18.210938 52.734375 51.273438 71.300781c31.246093 17.539063 72.570312 27.199219 116.363281 27.199219s85.117187-9.660156 116.359375-27.199219c33.066406-18.566406 51.277344-43.886719 51.277344-71.300781s-18.210938-52.734375-51.277344-71.300781zm-167.8125-297.699219c0-11.566406 22.003906-24.5 51.453125-24.5s51.453125 12.933594 51.453125 24.5-22.003906 24.5-51.453125 24.5-51.453125-12.933594-51.453125-24.5zm-12.316406 118.851562c-15.050782-8.449218-23.339844-19.042968-23.339844-29.832031 0-10.789062 8.289062-21.382812 23.339844-29.832031 16.871093-9.472656 39.519531-14.6875 63.769531-14.6875 24.253906 0 46.898437 5.214844 63.769531 14.6875 15.050781 8.449219 23.339844 19.042969 23.339844 29.832031 0 10.789063-8.289063 21.382813-23.339844 29.832031-16.871094 9.46875-39.515625 14.6875-63.769531 14.6875-24.25 0-46.898438-5.21875-63.769531-14.6875zm-48.210938 93.167969c0-31.699219 51.28125-58.480469 111.980469-58.480469s111.980469 26.78125 111.980469 58.480469-51.28125 58.480469-111.980469 58.480469-111.980469-26.78125-111.980469-58.480469zm218.550781 210.839844c-28.300781 15.890625-66.148437 24.640625-106.570312 24.640625-40.417969 0-78.269531-8.75-106.570313-24.640625-26.480468-14.867187-41.066406-33.996094-41.066406-53.859375s14.585938-38.992188 41.066406-53.859375c28.300782-15.890625 66.152344-24.640625 106.570313-24.640625 40.421875 0 78.269531 8.75 106.570312 24.640625 26.484375 14.867187 41.066407 33.996094 41.066407 53.859375s-14.582032 38.992188-41.066407 53.859375zm0 0"/><path d="m167.761719 363h-.125c-5.523438 0-10 4.476562-10 10s4.476562 10 10 10h.125c5.523437 0 10-4.476562 10-10s-4.476563-10-10-10zm0 0"/><path d="m260.5 384.054688c-15.34375-8.613282-34.929688-14.945313-56.632812-18.308594-5.457032-.839844-10.566407 2.894531-11.414063 8.351562-.84375 5.460938 2.894531 10.566406 8.351563 11.414063 19.367187 3 36.625 8.527343 49.90625 15.984375 10.992187 6.171875 15.628906 11.714844 16.699218 13.648437.78125 4.738281 4.902344 8.355469 9.863282 8.355469 5.523437 0 10-4.476562 10-10 0-8.890625-10.257813-20.171875-26.773438-29.445312zm0 0"/></svg>