<?xml version="1.0" encoding="utf-8"?>
<!-- Generator: Adobe Illustrator 22.0.0, SVG Export Plug-In . SVG Version: 6.00 Build 0)  -->
<svg version="1.1" id="Capa_1" xmlns="http://www.w3.org/2000/svg" xmlns:xlink="http://www.w3.org/1999/xlink" x="0px" y="0px"
	 viewBox="0 0 512 512" style="enable-background:new 0 0 512 512;" xml:space="preserve">
<g>
	<path d="M367.1,390.2c0.3,0,0.6-0.1,0.8-0.4c0.3-0.3,0.6-0.4,0.8-0.4c36.8-24.2,64.6-56.1,83.6-95.7c4.7-10.6,8.9-24.8,12.5-42.6
		c3.3-16.7,5-34.1,5-52.2c-0.8-20.9-4.9-39.4-12.1-55.6c-10-21.2-25.4-35.7-46-43.5c-22.6-8.4-46.4-7-71.5,4.2
		c-10,5.3-18.8,10.9-26.3,16.7l-1.3,0.8c-1.1,0.6-2.2,0.8-3.3,0.8c-1.1,0-2.4-0.7-3.8-2.1l-1.3-0.8l-3.3-4.2
		c-6.1-7.8-10.7-13.6-13.8-17.6l-0.8-1.3c-0.6-1.1-0.8-2.1-0.8-2.9c0-2.5,1.1-4.6,3.3-6.3c21.4-16.7,43.5-27.2,66-31.3
		c36.2-7.5,69.9-0.6,101.1,20.9c17.3,11.7,30.6,28.8,40.1,51.4c6.1,13.1,10.7,29.7,13.8,49.7c3.6,26.2,2.2,55.4-4.2,87.8
		c-7.2,36.8-24.9,71.7-53.1,104.9c-25.1,30.4-56.1,54.3-93.2,71.9c-20.3,8.9-42.8,15.6-67.3,20.1c-11.1,1.7-22.7,2.5-34.7,2.5
		c-6.4,0-16-0.6-28.8-1.7c-3.1,0-7.5-0.6-13.4-1.7h-1.3c-0.8,0-1.5-0.6-2.1-1.7c-1.1-0.8-1.8-1.7-2.1-2.7c-0.3-1-0.4-2.4-0.4-4.4
		l4.6-28.8c0-0.8,0.6-1.4,1.7-1.7l0.8-0.8c1.1-1.1,3.1-1.7,5.9-1.7c13.4,2.8,30.2,3.6,50.6,2.5c18.1-1.7,36.2-5.7,54.3-12.1
		c0.8-0.6,1.3-0.9,1.5-1c0.1-0.1-0.1-0.6-0.6-1.5l-2.9-15.5c-2.5-12.8-4.5-22.4-6.1-28.8c-1.5-6.4-2.7-12.3-3.6-17.6
		c0-1.7-1.1-2.5-3.3-2.5H198.3c-1.4,0-2.5,0.8-3.3,2.5c-6.1,24.5-11.1,49.5-15,74.8l-2.1,12.1c-0.8,6.1-1.5,10.6-2.1,13.4
		c0,0.3-0.1,0.7-0.4,1.3l-0.4,0.4c-2,1.7-3.3,2.6-4.2,2.7c-0.8,0.1-2.4-0.2-4.6-1c-33.4-12.8-63.2-31.9-89.4-57.2
		C51.6,368,32.4,340.7,19,310.4c-7.5-16.4-12.8-34.7-15.9-54.7c-3.9-13.9-5.9-29.4-5.9-46.4c0-36.5,7-67,20.9-91.5
		C37.4,82.3,67,61.5,106.8,55c27.3-5.3,56.4-0.6,87.3,14.2c16.4,8.4,31.8,19.5,46,33.4c14.2,13.9,27,29.7,38.4,47.2
		c17.3,26.5,32.9,56.4,46.8,89.8c12.5,31.8,23.3,66.6,32.2,104.5l3.3,15.5c2.5,12.3,4.3,21.6,5.4,28
		C366.9,388.2,367.1,389.1,367.1,390.2z M141.9,390.2c0.6-2.2,1.1-5.4,1.7-9.6c1.1-5.3,1.9-9,2.5-11.3
		c7.2-38.2,17.1-74.4,29.7-108.6c16.4-43.5,33.6-78.8,51.4-106.1c0.8-0.8,0.8-1.7,0-2.5c-3.9-4.5-9.8-10.9-17.6-19.2
		c-14.5-13.6-28.7-23.5-42.6-29.7c-24.5-10.6-48.9-11.1-73.1-1.7c-18.1,7.2-32.3,21.2-42.6,41.8c-8.1,16.4-12.1,35.2-12.1,56.4
		c-0.6,14.5,1.1,33,5,55.6c3.1,16.4,8.1,31.6,15,45.5c16.7,32.6,40.3,59.9,70.6,81.9c2.8,1.4,6.1,3.3,10,5.9L141.9,390.2z
		 M206.2,303.3c32.3,0,64.5,0,96.5,0c-13.1-42.9-29.3-80.4-48.5-112.4C235.9,222.3,219.9,259.8,206.2,303.3z"/>
</g>
</svg>
