<?xml version="1.0" encoding="utf-8"?>
<!-- Generator: Adobe Illustrator 22.0.0, SVG Export Plug-In . SVG Version: 6.00 Build 0)  -->
<svg version="1.1" id="Capa_1" xmlns="http://www.w3.org/2000/svg" xmlns:xlink="http://www.w3.org/1999/xlink" x="0px" y="0px"
	 viewBox="0 0 512 512" style="enable-background:new 0 0 512 512;" xml:space="preserve">
<g>
	<path d="M428.4,90.5c-1.8-2.8-5-4.5-8.4-4.5H92.4c-3.4,0-6.5,1.7-8.3,4.5L1.9,215.2c-0.4,0.5-0.7,1.1-1,1.7
		c-1.6,3.6-1,7.8,1.6,10.7l41.6,47.5c3.6,4.2,10,4.6,14.1,0.9c4.2-3.6,4.6-10,0.9-14.1L32,231.1h134.5l67.6,230.7l-76.4-87.2
		c-3.6-4.2-10-4.6-14.1-0.9c-4.2,3.6-4.6,10-0.9,14.1l105.8,120.8c1.9,2.2,4.6,3.4,7.5,3.4c2.9,0,5.6-1.2,7.5-3.4l112.6-128.6
		c3.6-4.2,3.2-10.5-0.9-14.1c-4.2-3.6-10.5-3.2-14.1,0.9l-83.2,95l67.6-230.7H480l-62.2,71c-3.6,4.2-3.2,10.5,0.9,14.1
		c1.9,1.7,4.2,2.5,6.6,2.5c2.8,0,5.5-1.2,7.5-3.4l76.7-87.6c3-3.4,3.3-8.3,0.8-12.1L428.4,90.5z M28.6,211.1l63.8-96.8l63.5,96.8
		H28.6z M110.9,106h126.6l-63.3,96.5L110.9,106z M256,114.3l63.5,96.8h-127L256,114.3z M256,465.4l-68.6-234.4h137.3L256,465.4z
		 M338,202.8L274.5,106h127L338,202.8z M356.5,211.1l63.5-96.8l63.5,96.8H356.5z"/>
	<path d="M167.2,337c0-5.5-4.5-10-10-10c-25.8,0-46.8-21-46.8-46.8c0-5.5-4.5-10-10-10c-5.5,0-10,4.5-10,10
		c0,25.8-21,46.8-46.8,46.8c-5.5,0-10,4.5-10,10c0,5.5,4.5,10,10,10c25.8,0,46.8,21,46.8,46.8c0,5.5,4.5,10,10,10s10-4.5,10-10
		c0-25.8,21-46.8,46.8-46.8C162.7,347,167.2,342.5,167.2,337z M100.4,358.7c-5.5-8.8-12.9-16.2-21.7-21.7
		c8.8-5.5,16.2-12.9,21.7-21.7c5.5,8.8,12.9,16.2,21.7,21.7C113.3,342.5,105.9,349.9,100.4,358.7z"/>
	<path d="M422,60c16.5,0,30,13.5,30,30c0,5.5,4.5,10,10,10s10-4.5,10-10c0-16.5,13.5-30,30-30c5.5,0,10-4.5,10-10
		c0-5.5-4.5-10-10-10c-16.5,0-30-13.5-30-30c0-5.5-4.5-10-10-10s-10,4.5-10,10c0,16.5-13.5,30-30,30c-5.5,0-10,4.5-10,10
		C412,55.5,416.5,60,422,60z M462,40c2.9,3.8,6.2,7.2,10,10c-3.8,2.9-7.2,6.2-10,10c-2.9-3.8-6.2-7.2-10-10
		C455.8,47.2,459.2,43.8,462,40z"/>
	<path d="M395.7,332.4c-2.6,0-5.2,1.1-7.1,2.9c-1.9,1.9-2.9,4.4-2.9,7.1c0,2.6,1.1,5.2,2.9,7.1c1.9,1.9,4.4,2.9,7.1,2.9
		c2.6,0,5.2-1.1,7.1-2.9c1.9-1.9,2.9-4.4,2.9-7.1c0-2.6-1.1-5.2-2.9-7.1C400.9,333.5,398.3,332.4,395.7,332.4z"/>
</g>
</svg>
